<svg xmlns="http://www.w3.org/2000/svg" viewBox="0 0 320 320" role="img" aria-labelledby="title desc">
  <title id="title">Portrait illustration placeholder</title>
  <desc id="desc">Stylised illustration placeholder for Ammaar Murshid</desc>
  <defs>
    <radialGradient id="bg" cx="50%" cy="35%" r="80%">
      <stop offset="0%" stop-color="#a5b4fc" stop-opacity="0.85" />
      <stop offset="100%" stop-color="#4f46e5" stop-opacity="0.95" />
    </radialGradient>
    <linearGradient id="shirt" x1="0%" x2="0%" y1="0%" y2="100%">
      <stop offset="0%" stop-color="#334155" />
      <stop offset="100%" stop-color="#0f172a" />
    </linearGradient>
  </defs>
  <rect width="320" height="320" fill="url(#bg)" rx="160" ry="160" />
  <g transform="translate(160 170)">
    <path d="M-88 118c18-54 47-82 88-82s70 28 88 82H-88Z" fill="url(#shirt)" />
  </g>
  <g transform="translate(160 140)">
    <path d="M0-100c48 0 74 34 74 86 0 52-40 92-74 92s-74-40-74-92c0-52 26-86 74-86Z" fill="#f8fafc" />
    <path d="M0-92c36 0 54 28 54 68 0 40-30 72-54 72s-54-32-54-72c0-40 18-68 54-68Z" fill="#cbd5f5" />
    <path d="M0-88c32 0 50 24 50 60 0 22-6 38-16 50-8-12-20-18-34-18s-26 6-34 18c-10-12-16-28-16-50 0-36 18-60 50-60Z" fill="#1f2937" />
    <circle cx="-22" cy="-10" r="6" fill="#0f172a" />
    <circle cx="22" cy="-10" r="6" fill="#0f172a" />
    <path d="M-28 22c12 12 24 18 36 18s24-6 36-18" fill="none" stroke="#0f172a" stroke-width="7" stroke-linecap="round" />
  </g>
  <text x="160" y="305" text-anchor="middle" font-size="28" fill="rgba(15,23,42,0.75)" font-family="'Inter', 'Segoe UI', system-ui, sans-serif">Ammaar Murshid</text>
</svg>
