<svg xmlns="http://www.w3.org/2000/svg" viewBox="0 0 64 64">
  <title>Java</title>
  <path fill="#007396" d="M32 10c0 4.2-3.2 6.5-6 9-2.7 2.3-5 4.5-5 7.8 0 4.4 4.6 7 11 7-8.6.4-14.2-2.5-14.2-7.3 0-6.6 10.2-8 14.2-16.5Z"/>
  <path fill="#007396" d="M44.8 36.6c1.8 1.1 3.2 2.7 3.2 4.8 0 6-8.7 8.6-16 8.6S20 47.4 20 41.4c0-2.8 2.1-4.9 4.7-6.3-.6 1.1-.8 2.1-.8 3 0 4.2 5.4 6.5 12 6.5s11.8-2.3 11.8-6.5c0-.9-.3-1.9-.9-3Z"/>
  <path fill="#007396" d="M23 48c-2 .9-3.3 2-3.3 3.4 0 3.7 6 5.6 12.3 5.6S44 55.1 44 51.4c0-1.4-1.3-2.5-3.3-3.4 1.6 3.3-3.2 5.6-9.9 5.6S21.3 51.3 23 48Z"/>
</svg>
