<svg width="1200" height="720" viewBox="0 0 1200 720" xmlns="http://www.w3.org/2000/svg" role="img" aria-labelledby="title desc">
  <title id="title">Birth Plan preview</title>
  <desc id="desc">Soft gradient card with checklist blocks representing planning workflow</desc>
  <defs>
    <linearGradient id="birth-grad" x1="0%" y1="0%" x2="100%" y2="100%">
      <stop offset="0%" stop-color="#f97316" />
      <stop offset="50%" stop-color="#fb7185" />
      <stop offset="100%" stop-color="#facc15" />
    </linearGradient>
    <radialGradient id="birth-glow" cx="50%" cy="50%" r="75%">
      <stop offset="0%" stop-color="#fff7ed" stop-opacity="0.85" />
      <stop offset="100%" stop-color="#fff7ed" stop-opacity="0" />
    </radialGradient>
  </defs>
  <rect width="1200" height="720" rx="48" fill="url(#birth-grad)" />
  <rect x="90" y="60" width="1020" height="600" rx="40" fill="url(#birth-glow)" />
  <g fill="#1f2933" fill-opacity="0.85">
    <rect x="220" y="240" width="540" height="28" rx="14" />
    <rect x="220" y="300" width="320" height="24" rx="12" />
    <rect x="220" y="356" width="440" height="24" rx="12" />
    <rect x="220" y="412" width="380" height="24" rx="12" />
  </g>
  <g fill="#1f2933" fill-opacity="0.55">
    <circle cx="220" cy="180" r="36" />
    <circle cx="310" cy="180" r="28" />
    <circle cx="390" cy="180" r="24" />
  </g>
  <g fill="#fef3c7" fill-opacity="0.9">
    <rect x="780" y="260" width="220" height="140" rx="26" />
    <rect x="820" y="308" width="140" height="20" rx="10" fill="#1f2933" fill-opacity="0.65" />
    <rect x="820" y="344" width="120" height="16" rx="8" fill="#1f2933" fill-opacity="0.45" />
  </g>
</svg>
