<svg width="1200" height="720" viewBox="0 0 1200 720" xmlns="http://www.w3.org/2000/svg" role="img" aria-labelledby="title desc">
  <title id="title">Platform observability kit preview</title>
  <desc id="desc">Cool green gradient card with charts and graphs representing observability dashboards</desc>
  <defs>
    <linearGradient id="obs-bg" x1="0%" y1="0%" x2="100%" y2="90%">
      <stop offset="0%" stop-color="#052e16" />
      <stop offset="40%" stop-color="#064e3b" />
      <stop offset="100%" stop-color="#0f766e" />
    </linearGradient>
    <linearGradient id="obs-chart" x1="0%" y1="0%" x2="0%" y2="100%">
      <stop offset="0%" stop-color="#bbf7d0" stop-opacity="0.95" />
      <stop offset="100%" stop-color="#ccfbf1" stop-opacity="0.4" />
    </linearGradient>
  </defs>
  <rect width="1200" height="720" rx="48" fill="url(#obs-bg)" />
  <g fill="#34d399" fill-opacity="0.3">
    <circle cx="320" cy="300" r="200" />
    <circle cx="940" cy="260" r="220" />
  </g>
  <g fill="url(#obs-chart)">
    <rect x="220" y="380" width="420" height="220" rx="28" />
    <rect x="680" y="280" width="300" height="280" rx="32" />
  </g>
  <g stroke="#bbf7d0" stroke-width="10" stroke-linecap="round" fill="none" opacity="0.8">
    <path d="M260 520c60-80 120-120 180-84 70 44 120 20 170-48" />
    <path d="M720 420c24-90 90-140 150-96 42 30 74 32 110-6" opacity="0.7" />
  </g>
  <g fill="#ecfdf5" fill-opacity="0.9">
    <rect x="260" y="420" width="160" height="16" rx="8" />
    <rect x="260" y="456" width="220" height="16" rx="8" />
    <rect x="260" y="492" width="180" height="16" rx="8" />
  </g>
</svg>
